<mxfile host="app.diagrams.net" modified="2023-09-25T13:45:11.710Z" agent="Mozilla/5.0 (Windows NT 10.0; Win64; x64) AppleWebKit/537.36 (KHTML, like Gecko) Chrome/117.0.0.0 Safari/537.36" version="21.8.2" etag="_SR2Prd-Er-Mp5qMy9Nu" type="github">
  <diagram name="第 1 页" id="pflEIvenbSqzRO9gF_uU">
    <mxGraphModel>
      <root>
        <mxCell id="0" />
        <mxCell id="1" parent="0" />
      </root>
    </mxGraphModel>
  </diagram>
</mxfile>
